<?xml version="1.0" encoding="utf-8"?>
<!-- Generator: Adobe Illustrator 24.0.1, SVG Export Plug-In . SVG Version: 6.00 Build 0)  -->
<svg version="1.1" id="Layer_1" xmlns="http://www.w3.org/2000/svg" xmlns:xlink="http://www.w3.org/1999/xlink" x="0px" y="0px"
	 viewBox="0 0 1200 800" style="enable-background:new 0 0 1200 800;" xml:space="preserve">
<style type="text/css">
	.st0{fill:#007FBC;}
	.st1{fill:#3ACCE6;}
	.st2{fill:#003E54;}
	.st3{fill:#FFFFFF;}
</style>
<g>
	<rect class="st0" width="1200" height="800"/>
</g>
<polygon class="st1" points="1044,302.92 999.67,302.92 1055.67,399.92 999.67,497.08 1044,497.08 1100,399.92 "/>
<polygon class="st1" points="156,302.92 200.33,302.92 144.33,399.92 200.33,497.08 156,497.08 100,399.92 "/>
<polygon class="st2" points="183.67,497.08 127.67,399.92 183.67,302.92 1016.33,302.92 1072.33,399.92 1016.33,497.08 "/>
<g>
	<path class="st3" d="M240.33,458.92H205V341.08h36.83c33.67,0,58.67,15.83,58.67,59C300.5,441.42,270.5,458.92,240.33,458.92z
		 M241.17,363.92h-12.5v72h11.67c24.67,0,36-14.5,36-36C276.33,375.92,266,363.92,241.17,363.92z"/>
	<path class="st3" d="M327.5,458.92V341.08h81.83v23H351v20.33h33.83v22.83H351v28.5h60.83v23H327.5V458.92z"/>
	<path class="st3" d="M495,458.92h-22.83l-41.83-117.83h26.17l22.17,68.17c2.17,6.5,4.5,15.17,5.5,19.33
		c1-4.33,3.17-12.5,5.33-19.33l21.67-68.17H537L495,458.92z"/>
	<path class="st3" d="M611.5,417.08h-26v41.83H562V341.08h51.5c22.17,0,40.5,12.33,40.5,37.33
		C654.17,405.75,636,417.08,611.5,417.08z M612.83,363.92h-27.17v30.33h27.5c11,0,16.83-5,16.83-15.33
		C630,368.58,623.17,363.92,612.83,363.92z"/>
	<path class="st3" d="M724.83,460.75c-32.17,0-51.17-25-51.17-60.83s19-60.83,51.17-60.83s51.17,25,51.17,60.83
		S757,460.75,724.83,460.75z M724.83,362.58c-19,0-27,16.33-27,37.33s7.83,37.33,27,37.33c19,0,27-16.33,27-37.33
		S743.83,362.58,724.83,362.58z"/>
	<path class="st3" d="M841,460.75c-19.67,0-36.83-8.17-45.83-21.33l17-15.17c8.33,9.67,18.83,13.5,30.17,13.5
		c14,0,20.5-3.83,20.5-12.83c0-7.5-4-11-26.33-16c-21.67-5-36.83-12-36.83-35.17c0-21.33,18.83-34.5,42.17-34.5
		c18.33,0,31.83,6.83,43,18.5l-17,16.5c-7.5-7.67-16-12.17-26.83-12.17c-12.67,0-16.83,5.33-16.83,10.67c0,7.33,5,9.83,23.67,14.17
		c18.67,4.33,39.33,10.83,39.33,36.33C887.33,445.58,873.17,460.75,841,460.75z"/>
	<path class="st3" d="M961,364.25v94.67h-23.5v-94.67h-33.83v-23.17H995v23.17H961z"/>
</g>
</svg>
