<?xml version="1.0" encoding="utf-8"?>
<!-- Generator: Adobe Illustrator 24.0.1, SVG Export Plug-In . SVG Version: 6.00 Build 0)  -->
<svg version="1.1" id="Layer_1" xmlns="http://www.w3.org/2000/svg" xmlns:xlink="http://www.w3.org/1999/xlink" x="0px" y="0px"
	 viewBox="0 0 1200 800" style="enable-background:new 0 0 1200 800;" xml:space="preserve">
<style type="text/css">
	.st0{fill:#007FBC;}
	.st1{fill:#FFFFFF;}
</style>
<g>
	<rect class="st0" width="1200" height="800"/>
</g>
<g>
	<path class="st1" d="M419.9,472.72l12.49-29.01c13.5,10.07,31.43,15.31,49.15,15.31c13.09,0,21.35-5.04,21.35-12.69
		c-0.2-21.35-78.36-4.63-78.97-58.22c-0.2-27.2,23.97-48.15,58.22-48.15c20.35,0,40.69,5.04,55.2,16.52l-11.68,29.61
		c-13.3-8.46-29.81-14.5-45.53-14.5c-10.68,0-17.73,5.04-17.73,11.48c0.2,20.95,78.97,9.47,79.77,60.64
		c0,27.8-23.57,47.34-57.41,47.34C459.99,491.06,437.23,485.21,419.9,472.72 M899.15,433.24c-6.24,10.88-17.93,18.33-31.43,18.33
		c-19.94,0-36.06-16.12-36.06-36.06s16.12-36.06,36.06-36.06c13.5,0,25.18,7.45,31.43,18.33l34.45-19.14
		c-12.89-22.97-37.67-38.68-65.87-38.68c-41.7,0-75.54,33.84-75.54,75.54s33.84,75.54,75.54,75.54c28.4,0,52.98-15.51,65.87-38.68
		C933.6,452.38,899.15,433.24,899.15,433.24z M559.51,277.32h43.11v210.92h-43.11V277.32z M950.52,277.32v210.92h43.11v-63.26
		l51.17,63.26h55.2l-65.07-75.14l60.23-70.1h-52.78l-48.75,58.22V277.32H950.52z M730.74,433.64
		c-6.24,10.27-19.14,17.93-33.64,17.93c-19.94,0-36.06-16.12-36.06-36.06s16.12-36.06,36.06-36.06c14.5,0,27.4,8.06,33.64,18.53
		V433.64z M730.74,342.99v17.12c-7.05-11.89-24.58-20.15-42.91-20.15c-37.87,0-67.69,33.44-67.69,75.34s29.81,75.75,67.69,75.75
		c18.33,0,35.86-8.26,42.91-20.15v17.12h43.11V342.99H730.74z"/>
	<path class="st1" d="M153.38,433.44c0,14.71-11.89,26.59-26.59,26.59s-26.59-11.89-26.59-26.59c0-14.71,11.89-26.59,26.59-26.59
		h26.59V433.44z M166.68,433.44c0-14.71,11.89-26.59,26.59-26.59c14.71,0,26.59,11.89,26.59,26.59v66.48
		c0,14.71-11.89,26.59-26.59,26.59c-14.71,0-26.59-11.89-26.59-26.59V433.44z"/>
	<path class="st1" d="M193.27,326.67c-14.71,0-26.59-11.89-26.59-26.59c0-14.71,11.89-26.59,26.59-26.59
		c14.71,0,26.59,11.89,26.59,26.59v26.59H193.27z M193.27,340.17c14.71,0,26.59,11.89,26.59,26.59s-11.89,26.59-26.59,26.59h-66.68
		c-14.71,0-26.59-11.89-26.59-26.59s11.89-26.59,26.59-26.59H193.27z"/>
	<path class="st1" d="M299.84,366.76c0-14.71,11.89-26.59,26.59-26.59s26.59,11.89,26.59,26.59s-11.89,26.59-26.59,26.59h-26.59
		V366.76z M286.54,366.76c0,14.71-11.89,26.59-26.59,26.59c-14.71,0-26.59-11.89-26.59-26.59v-66.68
		c0-14.71,11.89-26.59,26.59-26.59c14.71,0,26.59,11.89,26.59,26.59C286.54,300.08,286.54,366.76,286.54,366.76z"/>
	<path class="st1" d="M259.95,473.33c14.71,0,26.59,11.89,26.59,26.59s-11.89,26.59-26.59,26.59c-14.71,0-26.59-11.89-26.59-26.59
		v-26.59H259.95z M259.95,460.03c-14.71,0-26.59-11.89-26.59-26.59c0-14.71,11.89-26.59,26.59-26.59h66.68
		c14.71,0,26.59,11.89,26.59,26.59s-11.89,26.59-26.59,26.59H259.95z"/>
</g>
</svg>
