<?xml version="1.0" encoding="utf-8"?>
<!-- Generator: Adobe Illustrator 24.0.1, SVG Export Plug-In . SVG Version: 6.00 Build 0)  -->
<svg version="1.1" id="Layer_1" xmlns="http://www.w3.org/2000/svg" xmlns:xlink="http://www.w3.org/1999/xlink" x="0px" y="0px"
	 viewBox="0 0 1200 800" style="enable-background:new 0 0 1200 800;" xml:space="preserve">
<style type="text/css">
	.st0{fill:#007FBC;}
	.st1{fill:#FFFFFF;}
</style>
<g>
	<rect class="st0" width="1200" height="800"/>
</g>
<g>
	<g>
		<path class="st1" d="M600.35,100C434.65,99.81,299.81,234.66,300,400.36C300.19,565.24,434.77,699.81,599.65,700
			c165.7,0.19,300.55-134.66,300.35-300.36C899.81,234.77,765.23,100.19,600.35,100z M553.72,130.48
			c-24.35,20.85-47.66,46.8-66.39,74.43c-8.43,12.44-16.02,25.29-22.75,38.47h-88.6C417.04,184.82,480.45,143.03,553.72,130.48z
			 M586.73,532.87H481.66c-15.81-34.27-26.73-73.8-28.56-118.2h133.64V532.87z M359.51,269.92h92.84
			c-15.49,37.68-24.26,77.57-25.83,118.2h-99.71C328.65,345.49,340.27,305.35,359.51,269.92z M326.94,414.67h99.58
			c1.53,41.27,10.21,80.79,25.91,118.2h-91.36C341.34,497.53,329.21,457.39,326.94,414.67z M377.96,559.42h87
			c6.63,12.65,14.1,25.04,22.42,37.14c22.08,32.11,45.82,55.99,65.87,72.88C481.34,657,418.98,616.39,377.96,559.42z M586.73,662.05
			c-29.65-21.71-64.55-56.35-91.3-102.63h91.3V662.05z M586.73,388.13H453.09c1.65-41.27,11.04-80.82,28.02-118.2h105.61
			L586.73,388.13L586.73,388.13z M586.73,243.38h-92.07c4.52-7.97,9.4-15.83,14.65-23.57c27.33-40.31,57.28-66.71,77.43-81.67
			L586.73,243.38L586.73,243.38z M873.18,388.13h-99.71c-1.57-40.63-10.34-80.52-25.83-118.2h92.84
			C859.73,305.35,871.35,345.49,873.18,388.13z M824.03,243.38h-88.6c-6.73-13.18-14.32-26.03-22.75-38.47
			c-18.73-27.63-42.05-53.58-66.4-74.43C719.55,143.02,782.96,184.81,824.03,243.38z M613.27,138.13
			c20.14,14.96,50.1,41.36,77.43,81.67c5.25,7.74,10.12,15.61,14.65,23.57h-92.07V138.13z M613.27,269.92h105.61
			c16.98,37.38,26.37,76.93,28.02,118.2H613.27V269.92L613.27,269.92z M613.27,414.67L613.27,414.67h133.64
			c-1.83,44.4-12.75,83.93-28.56,118.2H613.27L613.27,414.67L613.27,414.67z M613.27,559.42h91.3
			c-26.74,46.28-61.65,80.92-91.3,102.63V559.42z M646.76,669.44c20.05-16.88,43.78-40.77,65.86-72.87
			c8.32-12.1,15.79-24.49,22.42-37.14h87C781.03,616.39,718.66,657,646.76,669.44z M838.93,532.87h-91.36
			c15.71-37.41,24.39-76.93,25.91-118.2h99.57C870.79,457.39,858.66,497.53,838.93,532.87z"/>
	</g>
</g>
</svg>
